<svg xmlns="http://www.w3.org/2000/svg" viewBox="0 0 841 170" role="img" aria-labelledby="title">
  <title id="title">Halo</title>
  <!-- Web SVG traced from the current Halo logo silhouette. Not a manufacturing vector master. -->
  <defs>
    <linearGradient id="steel" x1="0" y1="0" x2="1" y2="0">
      <stop offset="0" stop-color="#8c9293"/>
      <stop offset=".18" stop-color="#e7e9e7"/>
      <stop offset=".39" stop-color="#9da3a3"/>
      <stop offset=".59" stop-color="#f2f3f0"/>
      <stop offset=".81" stop-color="#a4aaab"/>
      <stop offset="1" stop-color="#d4d8d7"/>
    </linearGradient>
    <pattern id="grain" width="3" height="3" patternUnits="userSpaceOnUse">
      <path d="M0 .5H3M0 2.1H3" fill="none" stroke="#fff" stroke-width=".3" stroke-opacity=".18"/>
    </pattern>
    <clipPath id="symbol-clip"><path d="M0,92 L1,92 L1,79 L2,79 L2,73 L3,73 L3,70 L4,70 L5,64 L6,64 L6,62 L7,62 L7,60 L8,60 L10,54 L12,53 L12,51 L13,51 L13,50 L14,50 L14,49 L15,49 L20,43 L22,43 L22,41 L23,41 L26,37 L28,37 L29,35 L31,35 L31,34 L34,33 L35,31 L37,31 L37,30 L41,29 L42,27 L44,27 L44,26 L46,26 L46,25 L49,25 L49,24 L51,24 L51,23 L55,23 L55,22 L59,22 L59,21 L69,21 L69,20 L73,20 L73,21 L83,21 L83,22 L87,22 L87,23 L94,23 L94,24 L100,24 L100,25 L106,25 L106,26 L112,26 L112,27 L118,27 L118,28 L123,28 L123,29 L130,29 L130,30 L136,30 L136,31 L144,32 L144,33 L147,33 L147,34 L149,34 L149,35 L151,35 L151,36 L157,38 L159,41 L161,41 L163,44 L165,44 L165,45 L170,49 L170,51 L174,54 L174,56 L176,57 L176,59 L178,60 L178,62 L179,62 L179,64 L180,64 L180,66 L181,66 L181,68 L182,68 L182,70 L183,70 L184,77 L185,77 L185,79 L186,79 L187,88 L188,88 L188,98 L189,98 L188,120 L187,120 L187,124 L186,124 L186,128 L185,128 L185,131 L184,131 L183,137 L182,137 L180,143 L178,144 L178,146 L176,147 L176,149 L175,149 L175,150 L171,153 L171,155 L168,156 L164,161 L162,161 L161,163 L159,163 L159,164 L157,164 L157,165 L154,165 L154,166 L152,166 L152,167 L148,167 L148,168 L145,168 L145,169 L131,169 L131,170 L67,170 L67,169 L56,169 L56,168 L52,168 L52,167 L48,167 L48,166 L46,166 L46,165 L52,165 L52,164 L41,164 L41,163 L38,163 L37,161 L34,161 L32,158 L30,158 L29,156 L27,156 L27,155 L26,155 L26,154 L25,154 L25,153 L24,153 L24,152 L23,152 L23,151 L17,146 L17,144 L14,142 L14,140 L13,140 L13,138 L11,137 L11,135 L10,135 L10,133 L9,133 L9,130 L8,130 L8,128 L7,128 L7,126 L6,126 L6,124 L5,124 L5,120 L4,120 L4,118 L3,118 L2,108 L1,108 L1,98 L0,98 L1,96 L0,96ZM78,93 L78,97 L79,97 L79,106 L80,106 L81,112 L82,112 L84,118 L86,119 L86,121 L87,121 L87,122 L88,122 L93,128 L95,128 L95,129 L97,129 L97,130 L99,130 L99,131 L101,131 L101,132 L105,132 L105,133 L106,133 L106,132 L110,131 L111,129 L113,129 L113,128 L115,127 L115,125 L116,125 L118,122 L105,122 L105,121 L102,121 L102,120 L96,118 L96,117 L90,112 L90,110 L89,110 L89,108 L88,108 L88,106 L87,106 L87,103 L86,103 L86,92 L87,92 L87,88 L88,88 L90,82 L91,82 L96,76 L98,76 L98,75 L100,75 L100,74 L102,74 L102,73 L105,73 L105,72 L107,72 L107,71 L102,70 L102,69 L99,69 L99,68 L93,68 L93,67 L91,67 L91,68 L90,68 L90,69 L84,74 L84,76 L83,76 L83,78 L82,78 L82,80 L81,80 L80,86 L79,86 L79,93Z" clip-rule="evenodd"/></clipPath>
  </defs>
  <g clip-path="url(#symbol-clip)">
    <rect width="200" height="170" fill="url(#steel)"/>
    <rect width="200" height="170" fill="url(#grain)"/>
  </g>
  <path d="M205,0 L264,0 L264,1 L265,1 L265,65 L266,65 L266,63 L267,63 L267,62 L268,62 L268,61 L269,61 L269,60 L270,60 L270,59 L271,59 L276,53 L278,53 L280,50 L282,50 L282,49 L284,49 L284,48 L286,48 L286,47 L288,47 L288,46 L290,46 L290,45 L293,45 L293,44 L296,44 L296,43 L300,43 L300,42 L306,42 L306,41 L324,41 L324,42 L330,42 L330,43 L334,43 L334,44 L340,45 L340,46 L346,48 L347,50 L349,50 L350,52 L352,52 L352,53 L353,53 L353,54 L354,54 L354,55 L360,60 L360,62 L363,64 L363,66 L364,66 L364,68 L365,68 L365,70 L366,70 L366,72 L367,72 L367,75 L368,75 L368,78 L369,78 L369,83 L370,83 L370,169 L303,169 L303,88 L302,88 L302,85 L301,85 L301,83 L299,82 L298,79 L296,79 L295,77 L293,77 L293,76 L291,76 L291,75 L285,75 L285,74 L283,74 L283,75 L277,75 L277,76 L273,77 L272,79 L269,80 L269,82 L267,83 L267,85 L266,85 L266,87 L265,87 L265,169 L205,169ZM380,96 L381,96 L381,90 L382,90 L382,86 L383,86 L383,83 L384,83 L384,81 L385,81 L385,78 L386,78 L388,72 L390,71 L390,69 L392,68 L392,66 L395,64 L395,62 L396,62 L400,57 L402,57 L405,53 L409,52 L410,50 L412,50 L412,49 L414,49 L414,48 L416,48 L416,47 L418,47 L418,46 L424,45 L424,44 L434,43 L434,42 L510,42 L510,43 L516,43 L516,44 L520,44 L520,45 L523,45 L523,46 L529,47 L529,48 L533,49 L534,51 L538,52 L539,54 L541,54 L541,55 L542,55 L542,56 L543,56 L543,57 L544,57 L544,58 L545,58 L545,59 L546,59 L546,60 L552,65 L552,67 L555,69 L556,73 L558,74 L559,79 L560,79 L561,84 L562,84 L562,87 L563,87 L564,99 L565,99 L565,169 L506,169 L506,139 L505,139 L505,141 L503,142 L503,144 L500,146 L500,148 L499,148 L499,149 L498,149 L493,155 L491,155 L489,158 L487,158 L487,159 L484,160 L483,162 L481,162 L481,163 L479,163 L479,164 L477,164 L477,165 L475,165 L475,166 L469,167 L469,168 L460,169 L460,170 L435,170 L435,169 L430,169 L430,168 L426,168 L426,167 L423,167 L423,166 L417,165 L417,164 L415,164 L415,163 L409,161 L409,160 L406,159 L405,157 L403,157 L403,156 L402,156 L402,155 L401,155 L401,154 L400,154 L400,153 L399,153 L399,152 L398,152 L398,151 L392,146 L392,144 L391,144 L390,141 L388,140 L388,138 L387,138 L387,136 L386,136 L386,134 L385,134 L385,131 L384,131 L384,129 L383,129 L382,121 L381,121 L381,116 L380,116ZM441,101 L442,115 L443,115 L443,118 L444,118 L445,122 L447,123 L447,125 L448,125 L453,131 L455,131 L456,133 L458,133 L458,134 L460,134 L460,135 L463,135 L463,136 L467,136 L467,137 L477,137 L477,136 L482,136 L482,135 L484,135 L484,134 L487,134 L487,133 L490,132 L491,130 L493,130 L493,129 L497,126 L497,124 L499,123 L499,121 L500,121 L500,119 L501,119 L501,117 L502,117 L502,114 L503,114 L503,108 L504,108 L502,94 L501,94 L500,90 L498,89 L498,87 L497,87 L497,86 L496,86 L496,85 L495,85 L490,79 L488,79 L488,78 L486,78 L486,77 L484,77 L484,76 L474,75 L474,74 L461,76 L461,77 L455,79 L453,82 L451,82 L451,83 L448,85 L448,87 L446,88 L446,90 L444,91 L444,94 L443,94 L443,96 L442,96 L442,101ZM577,0 L644,0 L644,169 L577,169ZM656,104 L657,104 L657,93 L658,93 L659,85 L660,85 L661,79 L662,79 L662,77 L663,77 L665,71 L667,70 L667,68 L670,66 L670,64 L671,64 L671,63 L672,63 L672,62 L673,62 L673,61 L674,61 L679,55 L681,55 L681,54 L684,53 L685,51 L689,50 L690,48 L693,48 L693,47 L695,47 L695,46 L698,46 L698,45 L701,45 L701,44 L705,44 L705,43 L711,43 L711,42 L787,42 L787,43 L793,43 L793,44 L797,44 L797,45 L803,46 L803,47 L805,47 L805,48 L807,48 L807,49 L813,51 L814,53 L816,53 L818,56 L820,56 L820,57 L821,57 L821,58 L822,58 L822,59 L828,64 L828,66 L830,67 L830,69 L832,70 L832,72 L834,73 L834,75 L835,75 L835,77 L836,77 L836,80 L837,80 L837,82 L838,82 L839,89 L840,89 L840,94 L841,94 L841,117 L840,117 L840,122 L839,122 L839,126 L838,126 L838,129 L837,129 L837,131 L836,131 L836,134 L835,134 L834,138 L832,139 L831,143 L828,145 L828,147 L827,147 L827,148 L826,148 L826,149 L825,149 L825,150 L824,150 L824,151 L823,151 L818,157 L816,157 L815,159 L813,159 L812,161 L810,161 L810,162 L808,162 L808,163 L806,163 L806,164 L804,164 L804,165 L801,165 L801,166 L798,166 L798,167 L794,167 L794,168 L790,168 L790,169 L708,169 L708,168 L704,168 L704,167 L700,167 L700,166 L694,165 L694,164 L692,164 L692,163 L686,161 L685,159 L683,159 L682,157 L680,157 L680,156 L679,156 L679,155 L678,155 L678,154 L677,154 L677,153 L676,153 L676,152 L675,152 L675,151 L669,146 L669,144 L667,143 L667,141 L665,140 L665,138 L664,138 L664,136 L663,136 L663,134 L662,134 L662,132 L661,132 L661,129 L660,129 L660,126 L659,126 L659,123 L658,123ZM718,99 L718,113 L719,113 L720,119 L721,119 L721,121 L723,122 L723,124 L724,124 L724,125 L726,126 L726,128 L729,129 L731,132 L733,132 L733,133 L735,133 L735,134 L737,134 L737,135 L740,135 L740,136 L744,136 L744,137 L754,137 L754,136 L758,136 L758,135 L761,135 L761,134 L767,132 L767,131 L768,131 L768,130 L769,130 L769,129 L775,124 L775,122 L776,122 L776,120 L777,120 L777,118 L778,118 L778,116 L779,116 L779,112 L780,112 L780,99 L779,99 L779,96 L778,96 L778,93 L777,93 L776,89 L774,88 L774,86 L773,86 L768,80 L764,79 L763,77 L757,76 L757,75 L750,75 L750,74 L748,74 L748,75 L741,75 L741,76 L738,76 L738,77 L733,78 L732,80 L730,80 L730,81 L729,81 L729,82 L723,87 L723,89 L722,89 L722,91 L721,91 L721,93 L720,93 L720,95 L719,95 L719,99Z" fill="#fff" fill-rule="evenodd"/>
</svg>
